<mxfile host="app.diagrams.net" modified="2022-03-21T13:11:46.888Z" agent="5.0 (Windows NT 10.0; Win64; x64) AppleWebKit/537.36 (KHTML, like Gecko) Chrome/99.0.4844.74 Safari/537.36" etag="wVsMqN3J8jwDlIrtvYIg" version="17.1.3" type="github">
  <diagram id="TnfoAWKViGaEipIKddAv" name="第 1 页">
    <mxGraphModel dx="1218" dy="-456" grid="1" gridSize="10" guides="1" tooltips="1" connect="1" arrows="1" fold="1" page="1" pageScale="1" pageWidth="827" pageHeight="1169" math="0" shadow="0">
      <root>
        <mxCell id="0" />
        <mxCell id="1" parent="0" />
        <mxCell id="h5h7kIKM6gzvFvrCz9Zm-128" value=":AbstractElasticJobBase" style="shape=umlLifeline;perimeter=lifelinePerimeter;whiteSpace=wrap;html=1;container=1;collapsible=0;recursiveResize=0;outlineConnect=0;" vertex="1" parent="1">
          <mxGeometry x="319" y="1275" width="100" height="860" as="geometry" />
        </mxCell>
        <mxCell id="h5h7kIKM6gzvFvrCz9Zm-129" value="" style="html=1;points=[];perimeter=orthogonalPerimeter;" vertex="1" parent="h5h7kIKM6gzvFvrCz9Zm-128">
          <mxGeometry x="45" y="210" width="10" height="600" as="geometry" />
        </mxCell>
        <mxCell id="h5h7kIKM6gzvFvrCz9Zm-130" value="" style="html=1;points=[];perimeter=orthogonalPerimeter;" vertex="1" parent="h5h7kIKM6gzvFvrCz9Zm-128">
          <mxGeometry x="50" y="260" width="10" height="60" as="geometry" />
        </mxCell>
        <mxCell id="h5h7kIKM6gzvFvrCz9Zm-131" value="fetchData" style="edgeStyle=orthogonalEdgeStyle;html=1;align=left;spacingLeft=2;endArrow=block;rounded=0;entryX=1;entryY=0;" edge="1" parent="h5h7kIKM6gzvFvrCz9Zm-128" target="h5h7kIKM6gzvFvrCz9Zm-130">
          <mxGeometry relative="1" as="geometry">
            <mxPoint x="55" y="240" as="sourcePoint" />
            <Array as="points">
              <mxPoint x="85" y="240" />
            </Array>
          </mxGeometry>
        </mxCell>
        <mxCell id="h5h7kIKM6gzvFvrCz9Zm-82" value="" style="html=1;points=[];perimeter=orthogonalPerimeter;" vertex="1" parent="1">
          <mxGeometry x="882" y="1769" width="10" height="30" as="geometry" />
        </mxCell>
        <mxCell id="h5h7kIKM6gzvFvrCz9Zm-83" value="" style="html=1;points=[];perimeter=orthogonalPerimeter;" vertex="1" parent="1">
          <mxGeometry x="1025" y="1829" width="10" height="100" as="geometry" />
        </mxCell>
        <mxCell id="h5h7kIKM6gzvFvrCz9Zm-84" value="" style="html=1;points=[];perimeter=orthogonalPerimeter;" vertex="1" parent="1">
          <mxGeometry x="1132" y="1849" width="10" height="60" as="geometry" />
        </mxCell>
        <mxCell id="h5h7kIKM6gzvFvrCz9Zm-85" value="" style="html=1;points=[];perimeter=orthogonalPerimeter;" vertex="1" parent="1">
          <mxGeometry x="1247" y="1859" width="10" height="40" as="geometry" />
        </mxCell>
        <mxCell id="h5h7kIKM6gzvFvrCz9Zm-86" value=":JobStarter" style="shape=umlLifeline;perimeter=lifelinePerimeter;whiteSpace=wrap;html=1;container=1;collapsible=0;recursiveResize=0;outlineConnect=0;" vertex="1" parent="1">
          <mxGeometry x="170" y="1274" width="100" height="580" as="geometry" />
        </mxCell>
        <mxCell id="h5h7kIKM6gzvFvrCz9Zm-87" value="" style="html=1;points=[];perimeter=orthogonalPerimeter;" vertex="1" parent="h5h7kIKM6gzvFvrCz9Zm-86">
          <mxGeometry x="44" y="120" width="10" height="60" as="geometry" />
        </mxCell>
        <mxCell id="h5h7kIKM6gzvFvrCz9Zm-88" value="jobScheduler5" style="html=1;verticalAlign=bottom;startArrow=oval;endArrow=block;startSize=8;rounded=0;" edge="1" parent="h5h7kIKM6gzvFvrCz9Zm-86" target="h5h7kIKM6gzvFvrCz9Zm-87">
          <mxGeometry relative="1" as="geometry">
            <mxPoint x="-60" y="120" as="sourcePoint" />
          </mxGeometry>
        </mxCell>
        <mxCell id="h5h7kIKM6gzvFvrCz9Zm-89" value=":JobNSRXXCommitForRobot" style="shape=umlLifeline;perimeter=lifelinePerimeter;whiteSpace=wrap;html=1;container=1;collapsible=0;recursiveResize=0;outlineConnect=0;" vertex="1" parent="1">
          <mxGeometry x="485" y="1274" width="100" height="740" as="geometry" />
        </mxCell>
        <mxCell id="h5h7kIKM6gzvFvrCz9Zm-90" value="" style="html=1;points=[];perimeter=orthogonalPerimeter;" vertex="1" parent="h5h7kIKM6gzvFvrCz9Zm-89">
          <mxGeometry x="45" y="290" width="10" height="30" as="geometry" />
        </mxCell>
        <mxCell id="h5h7kIKM6gzvFvrCz9Zm-91" value="" style="html=1;points=[];perimeter=orthogonalPerimeter;" vertex="1" parent="h5h7kIKM6gzvFvrCz9Zm-89">
          <mxGeometry x="45" y="444" width="10" height="296" as="geometry" />
        </mxCell>
        <mxCell id="h5h7kIKM6gzvFvrCz9Zm-92" value="SpringJobScheduler" style="html=1;verticalAlign=bottom;endArrow=open;dashed=1;endSize=8;rounded=0;exitX=-0.387;exitY=0.872;exitDx=0;exitDy=0;exitPerimeter=0;" edge="1" parent="1" source="h5h7kIKM6gzvFvrCz9Zm-87">
          <mxGeometry relative="1" as="geometry">
            <mxPoint x="70" y="1446.0000000000005" as="targetPoint" />
            <mxPoint x="210" y="1454" as="sourcePoint" />
          </mxGeometry>
        </mxCell>
        <mxCell id="h5h7kIKM6gzvFvrCz9Zm-97" value="process" style="html=1;verticalAlign=bottom;startArrow=oval;endArrow=block;startSize=8;rounded=0;" edge="1" parent="1" source="h5h7kIKM6gzvFvrCz9Zm-86">
          <mxGeometry relative="1" as="geometry">
            <mxPoint x="280" y="1424" as="sourcePoint" />
            <mxPoint x="365" y="1564" as="targetPoint" />
          </mxGeometry>
        </mxCell>
        <mxCell id="h5h7kIKM6gzvFvrCz9Zm-98" value="" style="html=1;points=[];perimeter=orthogonalPerimeter;" vertex="1" parent="1">
          <mxGeometry x="370" y="1641" width="10" height="423" as="geometry" />
        </mxCell>
        <mxCell id="h5h7kIKM6gzvFvrCz9Zm-99" value="processData" style="edgeStyle=orthogonalEdgeStyle;html=1;align=left;spacingLeft=2;endArrow=block;rounded=0;entryX=1;entryY=0;" edge="1" parent="1" target="h5h7kIKM6gzvFvrCz9Zm-98">
          <mxGeometry relative="1" as="geometry">
            <mxPoint x="375" y="1620.9999999999995" as="sourcePoint" />
            <Array as="points">
              <mxPoint x="405" y="1621" />
            </Array>
          </mxGeometry>
        </mxCell>
        <mxCell id="h5h7kIKM6gzvFvrCz9Zm-100" value="getEdfDto" style="html=1;verticalAlign=bottom;startArrow=oval;endArrow=block;startSize=8;rounded=0;" edge="1" parent="1">
          <mxGeometry relative="1" as="geometry">
            <mxPoint x="369.3235294117644" y="1565.9999999999995" as="sourcePoint" />
            <mxPoint x="530" y="1565.9999999999995" as="targetPoint" />
          </mxGeometry>
        </mxCell>
        <mxCell id="h5h7kIKM6gzvFvrCz9Zm-101" value="" style="html=1;points=[];perimeter=orthogonalPerimeter;" vertex="1" parent="1">
          <mxGeometry x="375" y="1693" width="10" height="341" as="geometry" />
        </mxCell>
        <mxCell id="h5h7kIKM6gzvFvrCz9Zm-102" value="serialThread" style="edgeStyle=orthogonalEdgeStyle;html=1;align=left;spacingLeft=2;endArrow=block;rounded=0;entryX=1;entryY=0;" edge="1" parent="1" target="h5h7kIKM6gzvFvrCz9Zm-101">
          <mxGeometry relative="1" as="geometry">
            <mxPoint x="380" y="1673" as="sourcePoint" />
            <Array as="points">
              <mxPoint x="410" y="1673" />
            </Array>
          </mxGeometry>
        </mxCell>
        <mxCell id="h5h7kIKM6gzvFvrCz9Zm-103" value="return" style="html=1;verticalAlign=bottom;endArrow=open;dashed=1;endSize=8;exitX=0;exitY=0.95;rounded=0;" edge="1" parent="1" source="h5h7kIKM6gzvFvrCz9Zm-91">
          <mxGeometry relative="1" as="geometry">
            <mxPoint x="375" y="1999.1999999999991" as="targetPoint" />
          </mxGeometry>
        </mxCell>
        <mxCell id="h5h7kIKM6gzvFvrCz9Zm-104" value="processSingleJob" style="html=1;verticalAlign=bottom;endArrow=block;entryX=0;entryY=0;rounded=0;" edge="1" parent="1" target="h5h7kIKM6gzvFvrCz9Zm-91">
          <mxGeometry relative="1" as="geometry">
            <mxPoint x="368" y="1718.000000000001" as="sourcePoint" />
          </mxGeometry>
        </mxCell>
        <mxCell id="h5h7kIKM6gzvFvrCz9Zm-105" value="" style="html=1;points=[];perimeter=orthogonalPerimeter;" vertex="1" parent="1">
          <mxGeometry x="536" y="1754" width="10" height="220" as="geometry" />
        </mxCell>
        <mxCell id="h5h7kIKM6gzvFvrCz9Zm-106" value="sbtj" style="edgeStyle=orthogonalEdgeStyle;html=1;align=left;spacingLeft=2;endArrow=block;rounded=0;entryX=1;entryY=0;" edge="1" parent="1" target="h5h7kIKM6gzvFvrCz9Zm-105">
          <mxGeometry relative="1" as="geometry">
            <mxPoint x="541" y="1734" as="sourcePoint" />
            <Array as="points">
              <mxPoint x="571" y="1734" />
            </Array>
          </mxGeometry>
        </mxCell>
        <mxCell id="h5h7kIKM6gzvFvrCz9Zm-107" value="getLoadNsrxxRequestDto" style="html=1;verticalAlign=bottom;endArrow=block;entryX=0;entryY=0;rounded=0;" edge="1" parent="1" source="h5h7kIKM6gzvFvrCz9Zm-89" target="h5h7kIKM6gzvFvrCz9Zm-82">
          <mxGeometry relative="1" as="geometry">
            <mxPoint x="814" y="1754" as="sourcePoint" />
          </mxGeometry>
        </mxCell>
        <mxCell id="h5h7kIKM6gzvFvrCz9Zm-108" value="RobotReqDto" style="html=1;verticalAlign=bottom;endArrow=open;dashed=1;endSize=8;exitX=0;exitY=0.95;rounded=0;" edge="1" parent="1" source="h5h7kIKM6gzvFvrCz9Zm-82" target="h5h7kIKM6gzvFvrCz9Zm-89">
          <mxGeometry relative="1" as="geometry">
            <mxPoint x="814" y="1830" as="targetPoint" />
          </mxGeometry>
        </mxCell>
        <mxCell id="h5h7kIKM6gzvFvrCz9Zm-109" value="loadNsrxx" style="html=1;verticalAlign=bottom;endArrow=block;entryX=0;entryY=0;rounded=0;" edge="1" parent="1" source="h5h7kIKM6gzvFvrCz9Zm-89" target="h5h7kIKM6gzvFvrCz9Zm-83">
          <mxGeometry relative="1" as="geometry">
            <mxPoint x="955" y="1814" as="sourcePoint" />
          </mxGeometry>
        </mxCell>
        <mxCell id="h5h7kIKM6gzvFvrCz9Zm-110" value="JSONObject" style="html=1;verticalAlign=bottom;endArrow=open;dashed=1;endSize=8;exitX=0;exitY=0.95;rounded=0;" edge="1" parent="1" source="h5h7kIKM6gzvFvrCz9Zm-83" target="h5h7kIKM6gzvFvrCz9Zm-89">
          <mxGeometry relative="1" as="geometry">
            <mxPoint x="955" y="1890" as="targetPoint" />
          </mxGeometry>
        </mxCell>
        <mxCell id="h5h7kIKM6gzvFvrCz9Zm-111" value="createTask" style="html=1;verticalAlign=bottom;endArrow=block;entryX=0;entryY=0;rounded=0;" edge="1" parent="1" target="h5h7kIKM6gzvFvrCz9Zm-84">
          <mxGeometry relative="1" as="geometry">
            <mxPoint x="1028" y="1849" as="sourcePoint" />
          </mxGeometry>
        </mxCell>
        <mxCell id="h5h7kIKM6gzvFvrCz9Zm-112" value="TaskScheduleResponse" style="html=1;verticalAlign=bottom;endArrow=open;dashed=1;endSize=8;exitX=0;exitY=0.95;rounded=0;" edge="1" parent="1" source="h5h7kIKM6gzvFvrCz9Zm-84">
          <mxGeometry relative="1" as="geometry">
            <mxPoint x="1028" y="1905.9999999999995" as="targetPoint" />
          </mxGeometry>
        </mxCell>
        <mxCell id="h5h7kIKM6gzvFvrCz9Zm-113" value="createTask" style="html=1;verticalAlign=bottom;endArrow=block;entryX=0;entryY=0;rounded=0;" edge="1" parent="1" target="h5h7kIKM6gzvFvrCz9Zm-85">
          <mxGeometry relative="1" as="geometry">
            <mxPoint x="1135" y="1859" as="sourcePoint" />
          </mxGeometry>
        </mxCell>
        <mxCell id="h5h7kIKM6gzvFvrCz9Zm-114" value="return" style="html=1;verticalAlign=bottom;endArrow=open;dashed=1;endSize=8;exitX=0;exitY=0.95;rounded=0;" edge="1" parent="1" source="h5h7kIKM6gzvFvrCz9Zm-85">
          <mxGeometry relative="1" as="geometry">
            <mxPoint x="1135" y="1897" as="targetPoint" />
          </mxGeometry>
        </mxCell>
        <mxCell id="h5h7kIKM6gzvFvrCz9Zm-115" value="POST&amp;nbsp;&amp;nbsp;/out/createtask" style="text;html=1;strokeColor=none;fillColor=none;align=center;verticalAlign=middle;whiteSpace=wrap;rounded=0;" vertex="1" parent="1">
          <mxGeometry x="1310" y="1864" width="60" height="30" as="geometry" />
        </mxCell>
        <mxCell id="h5h7kIKM6gzvFvrCz9Zm-116" value=":IRobotTransferService" style="shape=umlLifeline;perimeter=lifelinePerimeter;whiteSpace=wrap;html=1;container=1;collapsible=0;recursiveResize=0;outlineConnect=0;" vertex="1" parent="1">
          <mxGeometry x="836" y="1275" width="100" height="1545" as="geometry" />
        </mxCell>
        <mxCell id="h5h7kIKM6gzvFvrCz9Zm-118" value="" style="html=1;points=[];perimeter=orthogonalPerimeter;" vertex="1" parent="h5h7kIKM6gzvFvrCz9Zm-116">
          <mxGeometry x="46" y="494" width="10" height="30" as="geometry" />
        </mxCell>
        <mxCell id="h5h7kIKM6gzvFvrCz9Zm-119" value=":IRobotSdk" style="shape=umlLifeline;perimeter=lifelinePerimeter;whiteSpace=wrap;html=1;container=1;collapsible=0;recursiveResize=0;outlineConnect=0;" vertex="1" parent="1">
          <mxGeometry x="990" y="1275" width="80" height="1555" as="geometry" />
        </mxCell>
        <mxCell id="h5h7kIKM6gzvFvrCz9Zm-121" value="" style="html=1;points=[];perimeter=orthogonalPerimeter;" vertex="1" parent="h5h7kIKM6gzvFvrCz9Zm-119">
          <mxGeometry x="35" y="554" width="10" height="100" as="geometry" />
        </mxCell>
        <mxCell id="h5h7kIKM6gzvFvrCz9Zm-122" value=":TaskScheduleUtil" style="shape=umlLifeline;perimeter=lifelinePerimeter;whiteSpace=wrap;html=1;container=1;collapsible=0;recursiveResize=0;outlineConnect=0;" vertex="1" parent="1">
          <mxGeometry x="1097" y="1275" width="80" height="1545" as="geometry" />
        </mxCell>
        <mxCell id="h5h7kIKM6gzvFvrCz9Zm-124" value="" style="html=1;points=[];perimeter=orthogonalPerimeter;" vertex="1" parent="h5h7kIKM6gzvFvrCz9Zm-122">
          <mxGeometry x="35" y="574" width="10" height="60" as="geometry" />
        </mxCell>
        <mxCell id="h5h7kIKM6gzvFvrCz9Zm-125" value=":TaskScheduleInterface" style="shape=umlLifeline;perimeter=lifelinePerimeter;whiteSpace=wrap;html=1;container=1;collapsible=0;recursiveResize=0;outlineConnect=0;" vertex="1" parent="1">
          <mxGeometry x="1212" y="1275" width="80" height="1535" as="geometry" />
        </mxCell>
        <mxCell id="h5h7kIKM6gzvFvrCz9Zm-127" value="" style="html=1;points=[];perimeter=orthogonalPerimeter;" vertex="1" parent="h5h7kIKM6gzvFvrCz9Zm-125">
          <mxGeometry x="35" y="584" width="10" height="40" as="geometry" />
        </mxCell>
      </root>
    </mxGraphModel>
  </diagram>
</mxfile>
